<?xml version="1.0" standalone="no"?>
<!DOCTYPE svg PUBLIC "-//W3C//DTD SVG 20010904//EN"
 "http://www.w3.org/TR/2001/REC-SVG-20010904/DTD/svg10.dtd">
<svg version="1.0" xmlns="http://www.w3.org/2000/svg"
 width="294.000000pt" height="294.000000pt" viewBox="0 0 294.000000 294.000000"
 preserveAspectRatio="xMidYMid meet">
<metadata>
Created by potrace 1.10, written by Peter Selinger 2001-2011
</metadata>
<g transform="translate(0.000000,294.000000) scale(0.100000,-0.100000)"
fill="#000000" stroke="none">
<path d="M25 1461 l0 -1439 234 2 c256 1 262 3 222 57 -15 21 -21 43 -21 84 0
39 -4 55 -13 55 -7 0 -28 13 -45 28 l-32 29 0 161 c0 129 3 163 15 176 9 9 15
34 15 65 0 42 -3 51 -18 51 -34 0 -42 21 -42 116 0 69 4 95 15 104 8 7 15 27
15 45 0 18 7 38 15 45 13 11 15 88 15 585 0 497 2 574 15 585 9 8 15 30 15 60
0 30 6 52 15 60 9 8 15 30 15 60 0 30 6 52 15 60 8 7 15 20 15 29 0 20 77 98
101 103 9 1 76 60 148 130 72 70 143 131 157 134 14 4 41 4 61 1 23 -4 42 -2
51 6 9 7 58 14 115 17 68 3 102 9 105 18 3 9 -121 12 -600 12 l-603 0 0 -1439z
m609 1329 c40 -15 34 -49 -19 -98 -25 -23 -49 -42 -54 -42 -4 0 -32 -23 -61
-51 -52 -52 -102 -140 -107 -189 -3 -43 -30 -145 -44 -171 -11 -19 -15 -101
-17 -389 -6 -713 -8 -783 -26 -819 -10 -17 -14 -40 -11 -50 3 -10 -1 -24 -9
-30 -22 -18 -15 -188 8 -224 16 -23 17 -38 9 -124 -17 -177 -1 -342 37 -390
19 -25 19 -65 -1 -87 -4 -5 -40 -9 -81 -10 -76 -2 -121 11 -132 39 -3 9 -6
596 -6 1304 0 1361 -2 1304 45 1329 25 14 433 16 469 2z"/>
<path d="M1602 2888 c3 -9 39 -14 120 -16 108 -2 117 -4 138 -27 16 -17 34
-25 56 -25 18 0 39 -7 48 -15 8 -8 22 -15 31 -15 22 0 105 -79 105 -100 0 -20
31 -50 51 -50 7 0 53 -39 101 -87 74 -73 88 -93 88 -119 0 -17 7 -37 15 -44 8
-7 15 -20 15 -30 0 -10 7 -23 15 -30 10 -8 15 -31 15 -65 0 -38 4 -55 15 -59
13 -5 15 -65 15 -459 0 -392 2 -456 15 -467 10 -9 15 -32 15 -75 0 -43 5 -66
15 -75 8 -7 15 -27 15 -45 0 -18 7 -38 15 -45 8 -7 15 -27 15 -45 0 -18 7 -38
15 -45 11 -9 15 -33 15 -89 0 -79 -9 -101 -42 -101 -14 0 -18 -8 -18 -39 0
-25 5 -41 15 -45 11 -4 15 -21 15 -60 0 -39 4 -55 15 -60 22 -8 22 -308 0
-326 -10 -8 -40 -11 -89 -8 l-75 3 -3 -93 c-2 -52 -1 -97 2 -101 3 -4 123 -7
268 -7 l262 0 0 1438 0 1438 -651 0 c-516 0 -650 -3 -647 -12z m1174 -121 l24
-28 0 -1262 c0 -715 -4 -1279 -10 -1301 -4 -21 -15 -43 -22 -47 -7 -5 -60 -8
-118 -7 -94 3 -105 5 -108 22 -3 12 9 31 31 51 30 27 36 41 41 91 14 118 5
251 -23 362 -8 31 -8 53 0 85 19 72 25 169 12 212 -6 22 -19 67 -28 100 -9 33
-24 76 -32 97 -8 20 -12 41 -8 48 4 6 2 17 -5 25 -6 8 -10 22 -9 32 1 10 -3
31 -9 46 -9 20 -12 153 -12 448 0 460 -3 487 -62 639 -50 130 -60 149 -84 165
-13 9 -24 22 -24 30 0 8 -13 21 -29 29 -40 21 -141 139 -141 164 0 29 13 30
323 28 l269 -1 24 -28z"/>
<path d="M1257 2844 c-36 -19 -52 -22 -66 -14 -11 5 -42 10 -69 10 -42 0 -54
-5 -86 -35 -37 -34 -37 -34 -71 -18 -45 21 -71 8 -145 -72 -30 -32 -77 -80
-104 -105 -28 -25 -57 -53 -65 -62 -9 -10 -23 -18 -31 -18 -42 0 -95 -89 -109
-183 -4 -26 -13 -53 -19 -59 -7 -7 -12 -29 -12 -50 0 -21 -7 -55 -15 -76 -14
-34 -15 -88 -10 -393 3 -195 6 -399 7 -454 2 -138 -11 -286 -28 -312 -8 -12
-14 -31 -14 -42 0 -11 -9 -38 -21 -60 -14 -27 -19 -54 -17 -83 3 -39 6 -43 32
-48 40 -7 44 -27 28 -134 -7 -50 -17 -138 -21 -196 -10 -121 -3 -147 46 -170
33 -15 43 -35 43 -82 0 -15 9 -52 21 -83 12 -33 18 -66 15 -81 -5 -20 -3 -24
14 -24 11 0 32 8 47 17 24 16 26 16 38 0 14 -20 55 -23 55 -4 0 7 6 22 14 32
13 18 14 17 30 -13 13 -25 23 -32 45 -32 l29 0 -18 38 c-27 55 -86 290 -75
300 2 2 19 -4 37 -15 22 -13 35 -30 41 -53 49 -199 81 -270 123 -270 21 0 23
2 12 19 -9 15 -9 23 1 34 10 13 8 16 -11 19 -18 2 -25 12 -32 46 -8 39 1 74
11 45 6 -17 83 -37 95 -25 5 5 17 35 27 66 10 31 22 56 27 54 5 -2 8 -10 7
-18 -1 -8 -5 -66 -9 -127 l-7 -113 61 0 61 0 -6 37 c-3 21 -13 48 -21 60 -16
26 -19 181 -4 210 5 10 12 38 16 63 16 104 43 133 84 92 10 -10 40 -29 65 -41
51 -25 61 -50 29 -73 -34 -24 -35 -38 -7 -64 30 -28 30 -18 2 -202 l-13 -82
73 0 73 0 0 53 c0 29 -4 57 -9 63 -5 5 -12 41 -16 81 l-7 72 32 16 32 17 -22
23 c-25 27 -21 55 8 55 11 0 25 6 31 14 6 7 26 16 43 20 17 3 39 13 48 21 9 8
27 16 40 17 l25 3 3 -127 c2 -100 -1 -134 -13 -157 -8 -17 -15 -43 -15 -59 0
-15 -7 -37 -15 -48 -8 -10 -15 -29 -15 -41 0 -22 4 -23 76 -23 l77 0 -6 78
c-4 42 -9 110 -13 150 -5 51 -4 72 5 72 6 0 11 -8 11 -17 0 -10 9 -31 20 -48
11 -16 20 -42 20 -57 0 -15 9 -42 19 -59 19 -31 19 -31 23 -8 2 17 11 25 32
29 41 7 46 30 6 30 -33 0 -32 -1 -82 120 -5 14 -16 38 -24 54 -19 38 -7 48 40
35 l38 -11 -7 -44 c-6 -40 -4 -47 25 -75 25 -26 36 -30 60 -25 22 4 30 2 30
-8 0 -8 -7 -16 -15 -20 -9 -3 -15 -19 -15 -41 0 -20 -8 -50 -17 -68 -9 -18
-18 -34 -18 -37 0 -3 -7 -15 -14 -28 -12 -22 -11 -23 15 -20 40 5 55 34 115
234 5 17 9 38 9 47 0 21 39 57 62 57 16 0 18 -5 13 -38 -13 -72 -56 -227 -74
-264 l-18 -38 27 0 c19 0 30 7 39 26 14 31 46 29 45 -4 -1 -25 30 -31 40 -7 3
8 12 15 20 15 7 0 16 -7 20 -15 7 -19 46 -20 46 -1 0 8 -4 26 -10 41 -6 16 -6
41 0 68 5 23 18 83 30 134 17 78 19 110 14 216 -7 129 -1 194 17 166 5 -7 9
-52 9 -99 0 -82 1 -87 30 -112 24 -21 30 -34 30 -68 0 -60 32 -100 81 -100 52
0 69 27 69 105 -1 33 -5 80 -11 105 -6 25 -15 72 -21 105 -5 33 -13 62 -18 65
-7 5 -21 82 -24 130 -1 20 4 26 24 28 38 6 50 21 50 63 0 27 -6 45 -20 56 -11
10 -20 29 -20 43 0 14 -7 34 -15 44 -8 11 -15 33 -15 49 0 15 -7 35 -15 43 -9
10 -15 35 -15 67 -1 29 -7 63 -15 77 -12 21 -14 100 -15 446 0 343 -3 430 -15
470 -8 27 -15 61 -15 75 0 15 -7 40 -15 55 -8 16 -15 36 -15 45 0 9 -7 22 -15
29 -8 7 -15 25 -15 41 0 21 -16 46 -64 97 -36 37 -77 74 -93 82 -35 18 -83 60
-83 74 0 20 -68 85 -94 92 -14 3 -26 10 -26 16 0 5 -8 8 -17 7 -36 -3 -49 2
-87 36 -33 31 -45 35 -91 35 -28 0 -65 -5 -81 -10 -25 -9 -38 -6 -79 15 -54
27 -114 32 -145 13 -15 -10 -26 -10 -53 0 -47 17 -65 15 -120 -14z m-27 -104
c19 -15 40 -38 47 -51 6 -13 26 -39 42 -58 17 -19 31 -38 31 -43 0 -4 5 -8 10
-8 22 0 -1 61 -48 127 -35 49 -30 54 42 47 48 -5 72 -3 94 9 17 8 33 12 36 9
11 -10 6 -42 -8 -65 -15 -22 -46 -128 -46 -155 0 -7 5 -10 10 -7 6 3 10 14 10
24 0 10 16 38 35 62 19 24 35 49 35 56 0 13 53 55 85 68 28 11 185 14 185 4 0
-5 -4 -9 -10 -9 -5 0 -28 -18 -52 -40 -44 -41 -75 -49 -96 -28 -9 9 -15 9 -24
0 -9 -9 -7 -12 9 -12 13 0 24 -8 28 -20 9 -27 35 -25 65 6 31 33 64 46 115 43
22 -1 48 2 57 5 27 12 63 2 66 -18 4 -16 0 -18 -33 -12 -23 5 -35 4 -31 -2 7
-12 -3 -42 -14 -42 -11 0 -91 -38 -125 -60 -16 -11 -39 -24 -50 -29 -27 -12
-58 -48 -47 -54 4 -4 51 15 102 41 91 45 96 46 184 46 83 0 113 -7 156 -33 8
-5 23 -12 34 -15 16 -5 16 -9 5 -23 -12 -15 -11 -16 9 -11 15 4 25 2 29 -8 3
-8 11 -14 19 -14 8 0 14 -9 14 -20 0 -11 4 -20 9 -20 10 0 51 -79 51 -99 0 -7
6 -22 12 -34 28 -49 58 -240 39 -251 -6 -4 -11 -2 -11 3 0 6 -4 11 -10 11 -14
0 -12 -38 2 -42 18 -6 18 -128 0 -156 -13 -20 -13 -25 -1 -32 11 -8 13 -35 11
-137 -2 -70 -7 -148 -12 -173 -34 -171 -58 -321 -62 -400 0 -8 2 -114 6 -235
6 -180 3 -264 -13 -460 -21 -251 -36 -331 -65 -347 -45 -25 -57 13 -30 97 21
65 37 357 39 680 0 251 3 302 31 515 35 280 31 650 -10 773 -21 65 -61 118
-124 164 -88 64 -205 103 -308 103 -47 0 -55 -3 -52 -17 3 -15 18 -19 83 -25
44 -4 93 -13 110 -19 68 -27 135 -61 135 -69 0 -4 15 -17 33 -28 43 -25 80
-103 97 -202 17 -102 18 -288 0 -320 -9 -18 -10 -25 -1 -28 11 -4 10 -29 -5
-99 -9 -46 -63 -18 -64 34 0 10 -19 29 -45 45 -32 19 -44 34 -47 54 -2 20 -16
37 -45 58 -39 27 -50 30 -120 29 -84 0 -182 -25 -222 -55 -38 -29 -55 -58 -42
-71 8 -8 -1 -17 -30 -34 -33 -18 -56 -23 -116 -23 -94 0 -143 24 -143 70 0 20
-9 35 -29 50 -65 45 -206 76 -285 61 -58 -11 -119 -57 -126 -96 -4 -20 -16
-33 -47 -49 -31 -15 -43 -27 -43 -43 0 -25 -32 -63 -52 -63 -8 -1 -6 -6 5 -14
13 -10 17 -28 17 -79 0 -36 4 -87 10 -114 20 -102 33 -279 40 -553 6 -227 11
-296 25 -340 24 -76 25 -114 2 -118 -23 -5 -55 35 -62 78 -4 19 -11 55 -16 80
-6 25 -14 187 -19 360 -8 284 -28 581 -45 673 -4 21 -3 37 4 41 14 9 15 83 1
91 -35 21 12 369 65 480 43 91 222 194 368 211 46 5 57 10 55 23 -2 10 -13 15
-28 15 -39 -3 -150 -24 -168 -33 -218 -103 -275 -163 -320 -336 -42 -162 -44
-407 -7 -745 9 -80 20 -271 25 -425 11 -362 27 -592 46 -680 19 -84 16 -109
-13 -113 -17 -3 -26 5 -38 33 -24 60 -55 296 -55 428 0 67 -3 206 -7 310 -5
166 -8 187 -23 187 -15 0 -18 -26 -24 -267 -4 -148 -8 -313 -9 -368 -2 -95 -3
-100 -24 -103 -36 -5 -46 36 -38 153 3 55 12 141 20 190 8 50 13 113 12 140
-4 85 15 445 23 450 5 3 11 -13 15 -35 4 -22 12 -40 17 -40 13 0 4 243 -12
305 -5 22 -10 113 -10 203 0 137 -2 162 -15 162 -10 0 -15 -10 -15 -30 0 -16
-5 -30 -10 -30 -7 0 -8 31 -4 88 6 76 11 91 35 119 15 17 30 46 34 65 17 79
86 199 161 276 40 42 71 78 69 80 -27 28 -225 -184 -225 -242 0 -8 -4 -17 -9
-21 -6 -3 -13 -26 -17 -51 -4 -27 -11 -43 -18 -41 -15 5 -8 109 10 153 8 18
14 49 14 69 0 25 5 38 18 42 9 4 46 36 82 73 103 106 207 145 366 137 55 -2
110 -8 122 -12 22 -7 23 -6 11 12 -9 15 -32 24 -85 33 -67 12 -105 11 -216 -7
-31 -4 -38 -2 -38 11 0 9 -7 16 -16 16 -11 0 -13 -6 -9 -19 5 -15 -4 -24 -42
-43 -65 -32 -143 -109 -143 -143 0 -15 -4 -24 -10 -20 -15 10 -12 71 5 85 8 7
15 19 15 26 0 7 12 20 28 28 15 8 54 40 86 70 62 58 80 66 90 41 4 -12 12 -10
43 11 34 23 44 25 103 19 l65 -6 -25 20 c-14 11 -50 26 -81 33 -52 10 -56 13
-45 30 7 13 18 17 34 13 16 -4 22 -1 22 10 0 14 10 15 63 10 63 -7 126 -40
192 -101 14 -13 32 -24 40 -24 23 0 28 20 7 28 -23 8 -112 119 -112 139 0 22
80 4 120 -27z m-178 -1003 c21 -7 40 -16 43 -19 4 -3 -42 -9 -100 -13 -119 -8
-154 2 -94 29 43 18 103 19 151 3z m735 -11 c-17 -18 -142 -32 -151 -18 -6 10
22 16 114 25 19 2 39 5 43 5 5 1 2 -4 -6 -12z m178 -6 c4 -6 -7 -10 -24 -10
-17 0 -31 5 -31 10 0 6 11 10 24 10 14 0 28 -4 31 -10z m-752 -64 c82 -38 135
-109 101 -137 -8 -6 -11 -21 -8 -33 3 -14 -3 -32 -15 -48 -12 -15 -18 -33 -15
-43 9 -22 -51 -108 -90 -129 -50 -27 -132 -36 -210 -24 -57 10 -74 17 -103 46
-57 56 -77 113 -77 217 -1 81 1 92 22 113 42 42 113 59 255 61 74 1 97 -3 140
-23z m781 -9 c57 -44 71 -79 56 -146 -31 -146 -60 -204 -115 -238 -44 -26
-225 -26 -275 1 -57 30 -110 109 -110 165 0 17 -9 48 -20 69 -25 48 -17 78 33
116 69 53 129 67 268 63 120 -3 128 -4 163 -30z m-553 -89 c16 -13 33 -65 43
-126 13 -78 98 -212 135 -212 9 0 30 -8 46 -17 22 -13 55 -17 130 -17 104 0
107 1 189 58 15 10 29 16 32 13 4 -3 1 -35 -5 -70 -6 -35 -11 -102 -11 -149 0
-97 -8 -112 -112 -220 -65 -68 -90 -75 -81 -23 5 30 3 35 -14 35 -15 0 -29
-19 -56 -79 -21 -44 -37 -89 -37 -101 0 -19 -4 -22 -29 -17 -16 4 -36 0 -47
-7 -10 -8 -50 -30 -88 -51 -61 -33 -76 -37 -122 -33 -30 3 -62 12 -71 20 -10
9 -34 21 -54 27 -20 7 -45 21 -54 31 -10 11 -24 20 -31 20 -28 0 -24 -23 11
-57 38 -37 40 -49 6 -38 -23 7 -61 67 -61 98 0 12 -18 59 -41 105 -30 61 -45
82 -57 80 -13 -3 -16 -13 -14 -46 3 -36 1 -42 -16 -42 -11 0 -22 4 -24 9 -1 5
-31 39 -65 75 -101 106 -113 131 -124 254 -5 59 -13 126 -18 149 -12 60 2 76
34 38 13 -16 24 -33 25 -36 0 -3 19 -15 42 -25 33 -15 65 -19 143 -18 89 0
106 3 157 28 31 15 69 44 84 63 28 37 77 163 87 227 10 60 35 81 68 54z m706
-115 c-4 -60 -13 -181 -21 -271 -9 -108 -12 -230 -9 -360 4 -150 1 -219 -10
-289 -20 -114 -47 -173 -82 -173 -22 0 -25 4 -25 34 0 18 6 49 14 67 19 45 37
244 32 344 -2 44 0 143 5 220 10 148 54 509 64 525 4 6 13 10 22 10 14 0 15
-14 10 -107z m188 -163 c9 -185 31 -408 44 -444 6 -15 11 -48 11 -74 0 -26 10
-81 21 -122 29 -104 52 -226 53 -285 1 -43 -2 -50 -20 -53 -17 -2 -24 6 -37
49 -9 28 -17 60 -17 71 0 10 -6 31 -13 46 -8 15 -20 61 -27 102 -7 41 -21 107
-31 145 -39 149 -46 361 -20 635 11 115 10 108 20 90 5 -8 12 -80 16 -160z
m108 -362 c3 -13 8 -34 12 -48 l7 -25 -21 24 c-21 23 -29 71 -12 71 5 0 11
-10 14 -22z m-1548 -108 c39 -48 39 -49 37 -127 -3 -69 5 -120 39 -253 3 -10
-5 -16 -23 -18 -24 -3 -28 0 -28 23 0 14 -6 38 -14 53 -14 28 -21 57 -56 232
-32 158 -24 174 45 90z m-455 25 c0 -8 -4 -15 -10 -15 -5 0 -10 7 -10 15 0 8
5 15 10 15 6 0 10 -7 10 -15z m1536 -96 c-21 -140 -32 -194 -53 -257 -17 -52
-55 -92 -68 -72 -3 6 -15 10 -27 10 -11 0 -41 11 -67 24 -25 14 -55 28 -66 31
-18 6 -17 9 15 38 44 39 76 87 85 125 4 20 38 62 97 121 50 50 93 90 95 87 2
-2 -3 -50 -11 -107z m-957 -48 c17 -17 42 -58 56 -91 14 -34 34 -62 54 -76 28
-20 27 -44 -1 -44 -13 0 -40 -14 -62 -30 -32 -24 -41 -27 -57 -17 -23 14 -26
25 -34 139 -3 48 -13 101 -21 117 -29 58 8 59 65 2z m651 -103 c0 -39 -50 -74
-74 -51 -7 7 52 73 66 73 4 0 8 -10 8 -22z m-814 -55 c8 -41 47 -140 79 -206
16 -31 11 -53 -16 -68 -15 -8 -24 -5 -45 16 -23 23 -24 30 -18 83 5 45 2 66
-10 90 -18 34 -22 112 -6 112 5 0 12 -12 16 -27z m724 -2 c0 -11 -68 -57 -96
-65 -12 -4 -29 -15 -39 -26 -16 -18 -18 -17 -83 27 -80 54 -77 51 -69 59 3 4
22 -3 41 -15 19 -12 56 -24 83 -27 41 -4 55 0 98 25 53 32 65 36 65 22z m375
-140 c-4 -45 -3 -71 4 -75 7 -5 7 -14 -1 -32 -9 -20 -18 -24 -42 -22 -28 3
-31 6 -30 38 2 49 51 160 71 160 3 0 2 -31 -2 -69z m-923 -59 c-10 -21 -27
-63 -37 -94 -18 -55 -21 -58 -52 -58 -18 0 -33 5 -33 10 0 6 -8 10 -17 8 -10
-2 -19 4 -20 12 -3 11 6 15 30 16 47 1 81 36 74 77 -3 18 -8 42 -12 54 -6 19
-3 22 27 25 51 5 61 -7 40 -50z m388 -21 c0 -12 -20 -25 -27 -18 -7 7 6 27 18
27 5 0 9 -4 9 -9z m-846 -95 c9 -30 16 -62 16 -72 0 -9 7 -25 16 -35 9 -10 13
-23 9 -28 -18 -30 -55 9 -55 58 0 21 -6 54 -14 72 -13 34 -12 59 4 59 5 0 16
-24 24 -54z"/>
<path d="M1264 2498 c3 -7 8 -20 12 -28 6 -18 64 -60 82 -60 19 0 14 24 -10
45 -52 47 -96 69 -84 43z"/>
<path d="M1990 2480 c0 -5 18 -15 40 -21 22 -7 45 -18 51 -26 6 -7 17 -13 23
-13 20 0 91 -118 132 -218 24 -60 35 -62 28 -5 -10 76 -76 202 -128 241 -57
43 -146 69 -146 42z"/>
<path d="M1467 2410 c-20 -11 -44 -20 -53 -20 -9 0 -28 -6 -42 -14 -15 -7 -52
-22 -82 -32 -30 -10 -66 -24 -80 -31 -14 -7 -35 -13 -47 -13 -12 0 -32 -4 -45
-9 -13 -5 -48 -17 -78 -26 -54 -16 -140 -54 -150 -66 -3 -3 -19 -13 -36 -22
-32 -16 -61 -56 -97 -132 -20 -42 -53 -333 -39 -347 4 -4 17 -5 29 -2 25 7 28
22 43 194 11 126 27 171 81 227 47 48 141 89 279 122 114 27 173 49 240 86 21
12 27 12 40 1 8 -8 33 -21 55 -30 39 -16 58 -22 175 -52 224 -56 307 -103 349
-200 18 -40 24 -81 35 -234 6 -84 20 -110 56 -110 27 0 29 2 20 23 -5 12 -13
78 -19 147 -11 136 -29 196 -73 248 -15 18 -28 37 -28 42 0 5 -15 16 -32 24
-18 8 -49 24 -68 35 -67 38 -128 59 -245 83 -27 5 -54 13 -60 18 -5 4 -34 15
-62 24 -29 10 -56 22 -59 28 -7 10 0 17 43 45 32 21 -8 15 -50 -7z"/>
<path d="M990 1633 c-57 -9 -97 -27 -127 -56 -36 -33 -42 -67 -18 -91 8 -8 15
-23 15 -33 1 -23 24 -51 76 -91 40 -31 46 -32 132 -32 81 0 94 3 131 27 23 15
41 30 41 35 0 14 -35 9 -60 -9 -19 -14 -45 -18 -105 -18 -79 0 -82 1 -132 40
-29 22 -55 48 -58 58 -4 9 -11 17 -16 17 -5 0 -9 13 -9 28 0 20 9 35 30 50 48
36 60 30 60 -30 1 -80 44 -119 127 -116 43 1 44 2 11 5 -50 6 -108 68 -108
117 0 28 6 38 34 55 18 12 38 21 45 21 21 0 11 -49 -16 -76 l-26 -26 24 -19
c13 -10 32 -19 41 -19 22 0 70 62 58 74 -6 6 -10 19 -10 31 0 13 -14 27 -42
43 -43 22 -50 23 -98 15z"/>
<path d="M1153 1589 c9 -5 17 -17 17 -26 0 -12 3 -13 15 -3 8 6 23 9 35 5 23
-7 26 1 6 21 -8 8 -32 14 -53 14 -31 -1 -35 -3 -20 -11z"/>
<path d="M1165 1496 c-8 -18 -21 -36 -30 -39 -21 -9 -19 -27 4 -27 25 0 75 64
67 85 -9 25 -26 17 -41 -19z"/>
<path d="M1690 1625 c-7 -8 -23 -15 -35 -15 -28 0 -105 -75 -105 -101 0 -27 9
-24 45 18 33 39 58 39 54 0 -4 -30 27 -84 52 -92 28 -9 38 3 16 19 -9 7 -17
18 -17 23 0 6 -7 16 -15 23 -8 7 -15 21 -15 30 0 22 55 80 76 80 22 0 18 -53
-6 -68 -26 -16 -25 -37 2 -56 30 -21 44 -20 69 5 17 17 19 28 14 60 -5 31 -4
39 8 39 18 0 47 -42 47 -67 0 -31 -68 -96 -109 -103 l-36 -6 32 -5 c40 -7 94
17 124 54 18 23 20 36 15 73 -5 41 -4 44 18 44 13 0 29 -7 36 -15 15 -18 30
-20 30 -4 0 35 -87 64 -182 61 -20 -1 -40 3 -43 8 -9 15 -61 12 -75 -5z"/>
<path d="M1976 1472 c-6 -17 -36 -48 -92 -91 -6 -5 -31 -13 -57 -19 -50 -10
-136 3 -159 26 -6 6 -18 12 -25 12 -7 0 -22 5 -33 12 -10 7 -22 10 -25 6 -8
-8 42 -58 58 -58 7 0 20 -7 30 -15 13 -9 47 -13 110 -13 87 0 94 2 136 32 52
37 92 99 74 117 -8 8 -13 6 -17 -9z"/>
<path d="M1357 1254 c-11 -11 3 -24 24 -24 12 0 19 5 17 13 -5 14 -31 21 -41
11z"/>
<path d="M1410 1200 c0 -11 4 -20 9 -20 11 0 22 26 14 34 -12 12 -23 5 -23
-14z"/>
<path d="M1245 1190 c-3 -10 -2 -27 3 -37 16 -29 131 -83 177 -83 49 0 163 56
178 87 5 12 7 29 3 38 -5 15 -10 14 -40 -9 -19 -14 -41 -26 -48 -26 -7 0 -22
-7 -32 -15 -23 -17 -68 -20 -94 -5 -23 13 -75 34 -83 32 -4 -1 -15 8 -24 18
-23 25 -32 25 -40 0z"/>
<path d="M1045 1069 c-4 -6 -5 -12 -4 -14 2 -2 22 -25 44 -50 22 -26 75 -83
118 -126 42 -44 77 -85 77 -91 0 -12 126 -138 139 -138 26 0 94 66 112 108 18
43 61 91 82 92 18 0 177 172 177 191 0 28 -35 24 -57 -6 -22 -31 1 -29 -298
-22 -150 4 -241 10 -243 17 -2 5 -14 7 -27 4 -28 -7 -65 11 -65 31 0 17 -45
21 -55 4z m179 -89 c13 0 40 -7 59 -15 51 -21 290 -21 331 0 39 20 56 19 56
-5 0 -13 -12 -28 -30 -38 -16 -9 -30 -20 -30 -24 0 -5 -11 -8 -25 -8 -14 0
-28 -6 -31 -14 -11 -28 -74 -44 -134 -35 -95 14 -131 27 -159 53 -15 14 -34
26 -42 26 -7 1 -25 10 -38 20 -18 15 -22 26 -17 45 6 23 8 24 22 10 8 -8 26
-15 38 -15z m261 -200 c-8 -13 -105 -13 -125 0 -10 7 7 10 58 10 46 0 71 -4
67 -10z"/>
<path d="M2297 383 c-9 -8 -9 -330 -1 -360 4 -13 13 -23 20 -23 11 0 14 24 14
118 0 137 -10 272 -20 272 -4 0 -10 -3 -13 -7z"/>
<path d="M1237 263 c-16 -15 -6 -33 18 -33 18 0 25 5 25 20 0 20 -28 28 -43
13z"/>
<path d="M1510 250 c0 -25 29 -38 41 -19 15 25 10 39 -16 39 -18 0 -25 -5 -25
-20z"/>
</g>
</svg>
